<?xml version="1.0" standalone="no"?>
<!DOCTYPE svg PUBLIC "-//W3C//DTD SVG 20010904//EN"
 "http://www.w3.org/TR/2001/REC-SVG-20010904/DTD/svg10.dtd">
<svg version="1.0" xmlns="http://www.w3.org/2000/svg"
 width="512.000000pt" height="512.000000pt" viewBox="0 0 512.000000 512.000000"
 preserveAspectRatio="xMidYMid meet">
<metadata>
Created by potrace 1.11, written by Peter Selinger 2001-2013
</metadata>
<g transform="translate(0.000000,512.000000) scale(0.100000,-0.100000)"
fill="#000000" stroke="none">
<path d="M2291 4889 c-496 -64 -931 -421 -1099 -901 -57 -162 -61 -206 -61
-665 0 -502 3 -484 -104 -601 -74 -81 -119 -157 -136 -233 -7 -28 -11 -386
-11 -979 0 -1016 -1 -989 56 -1101 33 -66 101 -131 169 -163 l54 -26 1223 0
1223 1 86 33 c183 69 325 180 390 306 l34 65 3 894 c1 581 -1 914 -8 950 -13
70 -58 166 -99 214 -18 20 -64 57 -102 83 -110 72 -103 40 -110 549 -6 402 -8
449 -28 540 -101 458 -452 837 -911 983 -172 55 -390 74 -569 51z m459 -614
c183 -67 317 -181 421 -356 54 -90 85 -182 109 -324 17 -101 20 -163 20 -446
l0 -329 -818 0 -819 0 -7 278 c-10 408 14 597 99 776 86 182 252 328 445 391
114 38 162 44 320 41 140 -3 162 -6 230 -31z m-157 -2296 c12 -6 41 -30 65
-53 85 -82 88 -183 9 -312 -42 -68 -42 -70 -42 -164 0 -81 7 -118 43 -246 23
-84 42 -155 42 -158 0 -3 -99 -6 -221 -6 -205 0 -220 1 -215 18 13 45 76 304
86 359 16 83 8 119 -47 200 -79 114 -86 192 -26 277 71 100 204 137 306 85z"/>
</g>
</svg>
